<svg width="62" height="62" viewBox="0 0 62 62" fill="none" xmlns="http://www.w3.org/2000/svg">
<circle cx="31" cy="31" r="31" fill="#B8D2EA"/>
<mask id="path-2-inside-1_5_346" fill="white">
<ellipse cx="31.0001" cy="26.3307" rx="9.77692" ry="12.023"/>
</mask>
<path d="M30.777 26.3307C30.777 27.4974 30.3854 28.2395 30.1549 28.5231C30.0497 28.6524 30.038 28.6168 30.1912 28.5371C30.3639 28.4473 30.6527 28.3536 31.0001 28.3536V48.3536C43.7558 48.3536 50.777 36.4618 50.777 26.3307H30.777ZM31.0001 28.3536C31.3474 28.3536 31.6362 28.4473 31.8089 28.5371C31.9621 28.6168 31.9504 28.6524 31.8453 28.5231C31.6147 28.2395 31.2231 27.4974 31.2231 26.3307H11.2231C11.2231 36.4618 18.2443 48.3536 31.0001 48.3536V28.3536ZM31.2231 26.3307C31.2231 25.1639 31.6147 24.4218 31.8453 24.1383C31.9504 24.009 31.9621 24.0445 31.8089 24.1242C31.6362 24.214 31.3474 24.3077 31.0001 24.3077V4.30769C18.2443 4.30769 11.2231 16.1995 11.2231 26.3307H31.2231ZM31.0001 24.3077C30.6527 24.3077 30.3639 24.214 30.1912 24.1242C30.038 24.0445 30.0497 24.009 30.1549 24.1383C30.3854 24.4218 30.777 25.1639 30.777 26.3307H50.777C50.777 16.1995 43.7558 4.30769 31.0001 4.30769V24.3077Z" fill="#22405C" mask="url(#path-2-inside-1_5_346)"/>
<mask id="path-4-inside-2_5_346" fill="white">
<path fill-rule="evenodd" clip-rule="evenodd" d="M51.5516 50.9115C46.3502 56.2791 39.0647 59.6154 30.9999 59.6154C22.9352 59.6154 15.6497 56.2791 10.4482 50.9115C15.6497 45.5439 22.9352 42.2077 30.9999 42.2077C39.0647 42.2077 46.3502 45.5439 51.5516 50.9115Z"/>
</mask>
<path d="M51.5516 50.9115L58.733 57.8706L65.4766 50.9115L58.733 43.9525L51.5516 50.9115ZM10.4482 50.9115L3.26689 43.9525L-3.47672 50.9115L3.26689 57.8706L10.4482 50.9115ZM44.3703 43.9525C40.9745 47.4567 36.248 49.6154 30.9999 49.6154V69.6154C41.8813 69.6154 51.7258 65.1016 58.733 57.8706L44.3703 43.9525ZM30.9999 49.6154C25.7518 49.6154 21.0253 47.4567 17.6296 43.9525L3.26689 57.8706C10.274 65.1016 20.1186 69.6154 30.9999 69.6154V49.6154ZM17.6296 57.8706C21.0253 54.3663 25.7518 52.2077 30.9999 52.2077V32.2077C20.1186 32.2077 10.274 36.7215 3.26689 43.9525L17.6296 57.8706ZM30.9999 52.2077C36.248 52.2077 40.9745 54.3663 44.3703 57.8706L58.733 43.9525C51.7258 36.7215 41.8813 32.2077 30.9999 32.2077V52.2077Z" fill="#22405C" mask="url(#path-4-inside-2_5_346)"/>
<path d="M51.5516 50.9115L58.733 57.8706L65.4766 50.9115L58.733 43.9525L51.5516 50.9115ZM10.4482 50.9115L3.26689 43.9525L-3.47672 50.9115L3.26689 57.8706L10.4482 50.9115ZM44.3703 43.9525C40.9745 47.4567 36.248 49.6154 30.9999 49.6154V69.6154C41.8813 69.6154 51.7258 65.1016 58.733 57.8706L44.3703 43.9525ZM30.9999 49.6154C25.7518 49.6154 21.0253 47.4567 17.6296 43.9525L3.26689 57.8706C10.274 65.1016 20.1186 69.6154 30.9999 69.6154V49.6154ZM17.6296 57.8706C21.0253 54.3663 25.7518 52.2077 30.9999 52.2077V32.2077C20.1186 32.2077 10.274 36.7215 3.26689 43.9525L17.6296 57.8706ZM30.9999 52.2077C36.248 52.2077 40.9745 54.3663 44.3703 57.8706L58.733 43.9525C51.7258 36.7215 41.8813 32.2077 30.9999 32.2077V52.2077Z" fill="#22405C" mask="url(#path-4-inside-2_5_346)"/>
</svg>
